<?xml version="1.0" encoding="utf-8"?>
<!-- Generator: Adobe Illustrator 18.0.0, SVG Export Plug-In . SVG Version: 6.00 Build 0)  -->
<!DOCTYPE svg PUBLIC "-//W3C//DTD SVG 1.1//EN" "http://www.w3.org/Graphics/SVG/1.1/DTD/svg11.dtd">
<svg version="1.1" id="Layer_1" xmlns="http://www.w3.org/2000/svg" xmlns:xlink="http://www.w3.org/1999/xlink" x="0px" y="0px"
	 viewBox="0 0 86.4 86.4" enable-background="new 0 0 86.4 86.4" xml:space="preserve">
<g>
	<circle cx="39.2" cy="42" r="1.1"/>
	<circle cx="47.2" cy="42" r="1.1"/>
	<path fill="none" stroke="#000000" stroke-width="2.0055" stroke-miterlimit="10" d="M43.2,35.5c-6.2,0-8.5,2.4-9.6,4.8L37,60.2
		h6.2"/>
	<path fill="none" stroke="#000000" stroke-width="2.0055" stroke-miterlimit="10" d="M43.2,35.5c6.2,0,8.5,2.4,9.6,4.8l-3.3,19.9
		h-6.2"/>
	<path fill="none" stroke="#000000" stroke-width="2.0055" stroke-miterlimit="10" d="M43.2,49.8H48l-4.8,4l6.2,6.4
		c10.2,0,14.8-23.3,12.5-29.9c-2.4-6.6-14.3-8.4-18.7-4.2c-4.4-4.2-16.3-2.4-18.7,4.2S26.8,60.2,37,60.2l6.2-6.4l-4.8-4H43.2"/>
</g>
</svg>
