<?xml version="1.0" encoding="utf-8"?>
<!-- Generator: Adobe Illustrator 18.0.0, SVG Export Plug-In . SVG Version: 6.00 Build 0)  -->
<!DOCTYPE svg PUBLIC "-//W3C//DTD SVG 1.1//EN" "http://www.w3.org/Graphics/SVG/1.1/DTD/svg11.dtd">
<svg version="1.1" xmlns="http://www.w3.org/2000/svg" xmlns:xlink="http://www.w3.org/1999/xlink" x="0px" y="0px"
	 viewBox="0 0 36 2755.4" enable-background="new 0 0 36 2755.4" xml:space="preserve">
<g id="Layer_4">
	<line fill="none" stroke="#FFFFFF" stroke-miterlimit="10" x1="-85.5" y1="50.8" x2="20.6" y2="50.8"/>
	<line fill="none" stroke="#FFFFFF" stroke-miterlimit="10" x1="-85.5" y1="93.8" x2="20.6" y2="93.8"/>
	<rect x="2" y="45.3" fill="none" width="32" height="9.4"/>
	<text transform="matrix(1 0 0 1 8.9801 52.5447)" font-family="'UniversLTStd-Light'" font-size="10">00:01</text>
	<rect x="2" y="3.1" fill="none" width="32" height="9.4"/>
	<text transform="matrix(1 0 0 1 8.9801 10.3364)" font-family="'UniversLTStd-Light'" font-size="10">00:00</text>
	<rect x="2" y="88.3" fill="none" width="32" height="9.4"/>
	<text transform="matrix(1 0 0 1 8.9801 95.5447)" font-family="'UniversLTStd-Light'" font-size="10">00:02</text>
	<rect x="2" y="131.3" fill="none" width="32" height="9.4"/>
	<text transform="matrix(1 0 0 1 8.9801 138.5447)" font-family="'UniversLTStd-Light'" font-size="10">00:03</text>
	<rect x="2" y="174.3" fill="none" width="32" height="9.4"/>
	<text transform="matrix(1 0 0 1 8.9801 181.5447)" font-family="'UniversLTStd-Light'" font-size="10">00:04</text>
	<rect x="2" y="217.3" fill="none" width="32" height="9.4"/>
	<text transform="matrix(1 0 0 1 8.9801 224.5447)" font-family="'UniversLTStd-Light'" font-size="10">00:05</text>
	<rect x="2" y="260.3" fill="none" width="32" height="9.4"/>
	<text transform="matrix(1 0 0 1 8.9801 267.5447)" font-family="'UniversLTStd-Light'" font-size="10">00:06</text>
	<rect x="2" y="303.3" fill="none" width="32" height="9.4"/>
	<text transform="matrix(1 0 0 1 8.9801 310.5447)" font-family="'UniversLTStd-Light'" font-size="10">00:07</text>
	<rect x="2" y="346.3" fill="none" width="32" height="9.4"/>
	<text transform="matrix(1 0 0 1 8.9801 353.5447)" font-family="'UniversLTStd-Light'" font-size="10">00:08</text>
	<rect x="2" y="389.3" fill="none" width="32" height="9.4"/>
	<text transform="matrix(1 0 0 1 8.9801 396.5447)" font-family="'UniversLTStd-Light'" font-size="10">00:09</text>
	<rect x="2" y="432.3" fill="none" width="32" height="9.4"/>
	<text transform="matrix(1 0 0 1 8.9801 439.5447)" font-family="'UniversLTStd-Light'" font-size="10">00:10</text>
	<rect x="2" y="475.3" fill="none" width="32" height="9.4"/>
	<text transform="matrix(1 0 0 1 8.9801 482.5447)" font-family="'UniversLTStd-Light'" font-size="10">00:11</text>
	<rect x="2" y="518.3" fill="none" width="32" height="9.4"/>
	<text transform="matrix(1 0 0 1 8.9801 525.5447)" font-family="'UniversLTStd-Light'" font-size="10">00:12</text>
	<rect x="2" y="561.3" fill="none" width="32" height="9.4"/>
	<text transform="matrix(1 0 0 1 8.9801 568.5447)" font-family="'UniversLTStd-Light'" font-size="10">00:13</text>
	<rect x="2" y="604.3" fill="none" width="32" height="9.4"/>
	<text transform="matrix(1 0 0 1 8.9801 611.5447)" font-family="'UniversLTStd-Light'" font-size="10">00:14</text>
	<rect x="2" y="647.3" fill="none" width="32" height="9.4"/>
	<text transform="matrix(1 0 0 1 8.9801 654.5447)" font-family="'UniversLTStd-Light'" font-size="10">00:15</text>
	<rect x="2" y="690.3" fill="none" width="32" height="9.4"/>
	<text transform="matrix(1 0 0 1 8.9801 697.5447)" font-family="'UniversLTStd-Light'" font-size="10">00:16</text>
	<rect x="2" y="733.3" fill="none" width="32" height="9.4"/>
	<text transform="matrix(1 0 0 1 8.9801 740.5447)" font-family="'UniversLTStd-Light'" font-size="10">00:17</text>
	<rect x="2" y="776.3" fill="none" width="32" height="9.4"/>
	<text transform="matrix(1 0 0 1 8.9801 783.5447)" font-family="'UniversLTStd-Light'" font-size="10">00:18</text>
	<rect x="2" y="819.3" fill="none" width="32" height="9.4"/>
	<text transform="matrix(1 0 0 1 8.9801 826.5447)" font-family="'UniversLTStd-Light'" font-size="10">00:19</text>
	<rect x="2" y="862.3" fill="none" width="32" height="9.4"/>
	<text transform="matrix(1 0 0 1 8.9801 869.5447)" font-family="'UniversLTStd-Light'" font-size="10">00:20</text>
	<rect x="2" y="905.3" fill="none" width="32" height="9.4"/>
	<text transform="matrix(1 0 0 1 8.9801 912.5447)" font-family="'UniversLTStd-Light'" font-size="10">00:21</text>
	<rect x="2" y="948.3" fill="none" width="32" height="9.4"/>
	<text transform="matrix(1 0 0 1 8.9801 955.5447)" font-family="'UniversLTStd-Light'" font-size="10">00:22</text>
	<rect x="2" y="991.3" fill="none" width="32" height="9.4"/>
	<text transform="matrix(1 0 0 1 8.9801 998.5447)" font-family="'UniversLTStd-Light'" font-size="10">00:23</text>
	<rect x="2" y="1034.3" fill="none" width="32" height="9.4"/>
	<text transform="matrix(1 0 0 1 8.9801 1041.5447)" font-family="'UniversLTStd-Light'" font-size="10">00:24</text>
	<rect x="2" y="1077.3" fill="none" width="32" height="9.4"/>
	<text transform="matrix(1 0 0 1 8.9801 1084.5447)" font-family="'UniversLTStd-Light'" font-size="10">00:25</text>
	<rect x="2" y="1120.3" fill="none" width="32" height="9.4"/>
	<text transform="matrix(1 0 0 1 8.9801 1127.5447)" font-family="'UniversLTStd-Light'" font-size="10">00:00</text>
	<rect x="2" y="1163.3" fill="none" width="32" height="9.4"/>
	<text transform="matrix(1 0 0 1 8.9801 1170.5447)" font-family="'UniversLTStd-Light'" font-size="10">00:00</text>
	<rect x="2" y="1206.3" fill="none" width="32" height="9.4"/>
	<text transform="matrix(1 0 0 1 8.9801 1213.5447)" font-family="'UniversLTStd-Light'" font-size="10">00:00</text>
	<rect x="2" y="1249.3" fill="none" width="32" height="9.4"/>
	<text transform="matrix(1 0 0 1 8.9801 1256.5447)" font-family="'UniversLTStd-Light'" font-size="10">00:00</text>
	<rect x="2" y="1292.3" fill="none" width="32" height="9.4"/>
	<text transform="matrix(1 0 0 1 8.9801 1299.5447)" font-family="'UniversLTStd-Light'" font-size="10">00:00</text>
	<rect x="2" y="1335.3" fill="none" width="32" height="9.4"/>
	<text transform="matrix(1 0 0 1 8.9801 1342.5447)" font-family="'UniversLTStd-Light'" font-size="10">00:00</text>
	<rect x="2" y="1378.3" fill="none" width="32" height="9.4"/>
	<text transform="matrix(1 0 0 1 8.9801 1385.5447)" font-family="'UniversLTStd-Light'" font-size="10">00:00</text>
	<rect x="2" y="1421.3" fill="none" width="32" height="9.4"/>
	<text transform="matrix(1 0 0 1 8.9801 1428.5447)" font-family="'UniversLTStd-Light'" font-size="10">00:00</text>
	<rect x="2" y="1464.3" fill="none" width="32" height="9.4"/>
	<text transform="matrix(1 0 0 1 8.9801 1471.5447)" font-family="'UniversLTStd-Light'" font-size="10">00:00</text>
	<rect x="2" y="1507.3" fill="none" width="32" height="9.4"/>
	<text transform="matrix(1 0 0 1 8.9801 1514.5447)" font-family="'UniversLTStd-Light'" font-size="10">00:00</text>
	<rect x="2" y="1550.3" fill="none" width="32" height="9.4"/>
	<text transform="matrix(1 0 0 1 8.9801 1557.5447)" font-family="'UniversLTStd-Light'" font-size="10">00:00</text>
	<rect x="2" y="1593.3" fill="none" width="32" height="9.4"/>
	<text transform="matrix(1 0 0 1 8.9801 1600.5447)" font-family="'UniversLTStd-Light'" font-size="10">00:00</text>
	<rect x="2" y="1636.3" fill="none" width="32" height="9.4"/>
	<text transform="matrix(1 0 0 1 8.9801 1643.5447)" font-family="'UniversLTStd-Light'" font-size="10">00:00</text>
	<rect x="2" y="1679.3" fill="none" width="32" height="9.4"/>
	<text transform="matrix(1 0 0 1 8.9801 1686.5447)" font-family="'UniversLTStd-Light'" font-size="10">00:00</text>
	<rect x="2" y="1722.3" fill="none" width="32" height="9.4"/>
	<text transform="matrix(1 0 0 1 8.9801 1729.5447)" font-family="'UniversLTStd-Light'" font-size="10">00:00</text>
	<rect x="2" y="1765.3" fill="none" width="32" height="9.4"/>
	<text transform="matrix(1 0 0 1 8.9801 1772.5447)" font-family="'UniversLTStd-Light'" font-size="10">00:00</text>
	<rect x="2" y="1808.3" fill="none" width="32" height="9.4"/>
	<text transform="matrix(1 0 0 1 8.9801 1815.5447)" font-family="'UniversLTStd-Light'" font-size="10">00:00</text>
	<rect x="2" y="1851.3" fill="none" width="32" height="9.4"/>
	<text transform="matrix(1 0 0 1 8.9801 1858.5447)" font-family="'UniversLTStd-Light'" font-size="10">00:00</text>
	<rect x="2" y="1894.3" fill="none" width="32" height="9.4"/>
	<text transform="matrix(1 0 0 1 8.9801 1901.5447)" font-family="'UniversLTStd-Light'" font-size="10">00:00</text>
	<rect x="2" y="1937.3" fill="none" width="32" height="9.4"/>
	<text transform="matrix(1 0 0 1 8.9801 1944.5447)" font-family="'UniversLTStd-Light'" font-size="10">00:00</text>
	<rect x="2" y="1980.3" fill="none" width="32" height="9.4"/>
	<text transform="matrix(1 0 0 1 8.9801 1987.5447)" font-family="'UniversLTStd-Light'" font-size="10">00:00</text>
	<rect x="2" y="2023.3" fill="none" width="32" height="9.4"/>
	<text transform="matrix(1 0 0 1 8.9801 2030.5447)" font-family="'UniversLTStd-Light'" font-size="10">00:00</text>
	<rect x="2" y="2066.3" fill="none" width="32" height="9.4"/>
	<text transform="matrix(1 0 0 1 8.9801 2073.5447)" font-family="'UniversLTStd-Light'" font-size="10">00:00</text>
	<rect x="2" y="2109.3" fill="none" width="32" height="9.4"/>
	<text transform="matrix(1 0 0 1 8.9801 2116.5447)" font-family="'UniversLTStd-Light'" font-size="10">00:00</text>
	<rect x="2" y="2152.3" fill="none" width="32" height="9.4"/>
	<text transform="matrix(1 0 0 1 8.9801 2159.5447)" font-family="'UniversLTStd-Light'" font-size="10">00:00</text>
	<rect x="2" y="2195.3" fill="none" width="32" height="9.4"/>
	<text transform="matrix(1 0 0 1 8.9801 2202.5447)" font-family="'UniversLTStd-Light'" font-size="10">00:00</text>
	<rect x="2" y="2238.3" fill="none" width="32" height="9.4"/>
	<text transform="matrix(1 0 0 1 8.9801 2245.5447)" font-family="'UniversLTStd-Light'" font-size="10">00:00</text>
	<rect x="2" y="2281.3" fill="none" width="32" height="9.4"/>
	<text transform="matrix(1 0 0 1 8.9801 2288.5447)" font-family="'UniversLTStd-Light'" font-size="10">00:00</text>
	<rect x="2" y="2324.3" fill="none" width="32" height="9.4"/>
	<text transform="matrix(1 0 0 1 8.9801 2331.5447)" font-family="'UniversLTStd-Light'" font-size="10">00:00</text>
	<rect x="2" y="2367.3" fill="none" width="32" height="9.4"/>
	<text transform="matrix(1 0 0 1 8.9801 2374.5447)" font-family="'UniversLTStd-Light'" font-size="10">00:00</text>
	<rect x="2" y="2410.3" fill="none" width="32" height="9.4"/>
	<text transform="matrix(1 0 0 1 8.9801 2417.5447)" font-family="'UniversLTStd-Light'" font-size="10">00:00</text>
	<rect x="2" y="2453.3" fill="none" width="32" height="9.4"/>
	<text transform="matrix(1 0 0 1 8.9801 2460.5447)" font-family="'UniversLTStd-Light'" font-size="10">00:00</text>
	<rect x="2" y="2496.3" fill="none" width="32" height="9.4"/>
	<text transform="matrix(1 0 0 1 8.9801 2503.5447)" font-family="'UniversLTStd-Light'" font-size="10">00:00</text>
	<rect x="2" y="2539.3" fill="none" width="32" height="9.4"/>
	<text transform="matrix(1 0 0 1 8.9801 2546.5447)" font-family="'UniversLTStd-Light'" font-size="10">00:00</text>
	<rect x="2" y="2582.3" fill="none" width="32" height="9.4"/>
	<text transform="matrix(1 0 0 1 8.9801 2589.5447)" font-family="'UniversLTStd-Light'" font-size="10">00:00</text>
	<rect x="2" y="2625.3" fill="none" width="32" height="9.4"/>
	<text transform="matrix(1 0 0 1 8.9801 2632.5447)" font-family="'UniversLTStd-Light'" font-size="10">00:00</text>
	<rect x="2" y="2668.3" fill="none" width="32" height="9.4"/>
	<text transform="matrix(1 0 0 1 8.9801 2675.5447)" font-family="'UniversLTStd-Light'" font-size="10">00:00</text>
</g>
<g id="Layer_1">
</g>
<g id="Layer_3" display="none">
	<rect x="18.2" y="1.8" display="inline" fill="none" width="14.7" height="446.8"/>
	<text transform="matrix(1 0 0 1 26.7472 10.345)" display="inline"><tspan x="0" y="0" font-family="'MyriadPro-Regular'" font-size="12">0</tspan><tspan x="0" y="43" font-family="'MyriadPro-Regular'" font-size="12">1</tspan><tspan x="0" y="86" font-family="'MyriadPro-Regular'" font-size="12">2</tspan><tspan x="0" y="129" font-family="'MyriadPro-Regular'" font-size="12">3</tspan><tspan x="0" y="172" font-family="'MyriadPro-Regular'" font-size="12">4</tspan><tspan x="0" y="215" font-family="'MyriadPro-Regular'" font-size="12">5</tspan><tspan x="0" y="258" font-family="'MyriadPro-Regular'" font-size="12">6</tspan><tspan x="0" y="301" font-family="'MyriadPro-Regular'" font-size="12">7</tspan><tspan x="0" y="344" font-family="'MyriadPro-Regular'" font-size="12">8</tspan><tspan x="0" y="387" font-family="'MyriadPro-Regular'" font-size="12">9</tspan><tspan x="-6.2" y="430" font-family="'MyriadPro-Regular'" font-size="12">10</tspan></text>
</g>
<g id="Layer_2" display="none">
</g>
</svg>
