<?xml version="1.0" encoding="utf-8"?>
<!-- Generator: Adobe Illustrator 18.0.0, SVG Export Plug-In . SVG Version: 6.00 Build 0)  -->
<!DOCTYPE svg PUBLIC "-//W3C//DTD SVG 1.1//EN" "http://www.w3.org/Graphics/SVG/1.1/DTD/svg11.dtd">
<svg version="1.1" xmlns="http://www.w3.org/2000/svg" xmlns:xlink="http://www.w3.org/1999/xlink" x="0px" y="0px"
	 viewBox="0 0 144 2755.4" enable-background="new 0 0 144 2755.4" xml:space="preserve">
<g id="Layer_4">
	<rect x="0.3" y="7.8" fill="#D1D3D4" width="25.4" height="2665.9"/>
	<rect x="25.8" y="7.8" fill="#E6E7E8" width="25.4" height="2665.9"/>
	<rect x="51.2" y="7.8" fill="#D1D3D4" width="25.4" height="2665.9"/>
	<rect x="76.6" y="7.8" fill="#E6E7E8" width="25.4" height="2665.9"/>
	<line fill="none" stroke="#FFFFFF" stroke-miterlimit="10" x1="-0.7" y1="50.8" x2="105.5" y2="50.8"/>
	<line fill="none" stroke="#FFFFFF" stroke-miterlimit="10" x1="-0.7" y1="93.8" x2="105.5" y2="93.8"/>
	<line fill="none" stroke="#FFFFFF" stroke-miterlimit="10" x1="-0.7" y1="136.8" x2="105.5" y2="136.8"/>
	<line fill="none" stroke="#FFFFFF" stroke-miterlimit="10" x1="-0.7" y1="179.8" x2="105.5" y2="179.8"/>
	<line fill="none" stroke="#FFFFFF" stroke-miterlimit="10" x1="-0.7" y1="222.8" x2="105.5" y2="222.8"/>
	<line fill="none" stroke="#FFFFFF" stroke-miterlimit="10" x1="-0.7" y1="265.8" x2="105.5" y2="265.8"/>
	<line fill="none" stroke="#FFFFFF" stroke-miterlimit="10" x1="-0.7" y1="308.8" x2="105.5" y2="308.8"/>
	<line fill="none" stroke="#FFFFFF" stroke-miterlimit="10" x1="-0.7" y1="351.8" x2="105.5" y2="351.8"/>
	<line fill="none" stroke="#FFFFFF" stroke-miterlimit="10" x1="-0.7" y1="394.8" x2="105.5" y2="394.8"/>
	<line fill="none" stroke="#FFFFFF" stroke-miterlimit="10" x1="-0.7" y1="437.8" x2="105.5" y2="437.8"/>
	<line fill="none" stroke="#FFFFFF" stroke-miterlimit="10" x1="-0.7" y1="480.8" x2="105.5" y2="480.8"/>
	<line fill="none" stroke="#FFFFFF" stroke-miterlimit="10" x1="-0.7" y1="523.8" x2="105.5" y2="523.8"/>
	<line fill="none" stroke="#FFFFFF" stroke-miterlimit="10" x1="-0.7" y1="566.8" x2="105.5" y2="566.8"/>
	<line fill="none" stroke="#FFFFFF" stroke-miterlimit="10" x1="-0.7" y1="609.8" x2="105.5" y2="609.8"/>
	<line fill="none" stroke="#FFFFFF" stroke-miterlimit="10" x1="-0.7" y1="652.8" x2="105.5" y2="652.8"/>
	<line fill="none" stroke="#FFFFFF" stroke-miterlimit="10" x1="-0.7" y1="695.8" x2="105.5" y2="695.8"/>
	<line fill="none" stroke="#FFFFFF" stroke-miterlimit="10" x1="-0.7" y1="738.8" x2="105.5" y2="738.8"/>
	<line fill="none" stroke="#FFFFFF" stroke-miterlimit="10" x1="-0.7" y1="781.8" x2="105.5" y2="781.8"/>
	<line fill="none" stroke="#FFFFFF" stroke-miterlimit="10" x1="-0.7" y1="824.8" x2="105.5" y2="824.8"/>
	<line fill="none" stroke="#FFFFFF" stroke-miterlimit="10" x1="-0.7" y1="867.8" x2="105.5" y2="867.8"/>
	<line fill="none" stroke="#FFFFFF" stroke-miterlimit="10" x1="-0.7" y1="910.8" x2="105.5" y2="910.8"/>
	<line fill="none" stroke="#FFFFFF" stroke-miterlimit="10" x1="-0.7" y1="953.8" x2="105.5" y2="953.8"/>
	<line fill="none" stroke="#FFFFFF" stroke-miterlimit="10" x1="-0.7" y1="996.8" x2="105.5" y2="996.8"/>
	<line fill="none" stroke="#FFFFFF" stroke-miterlimit="10" x1="-0.7" y1="1039.8" x2="105.5" y2="1039.8"/>
	<line fill="none" stroke="#FFFFFF" stroke-miterlimit="10" x1="-0.7" y1="1082.8" x2="105.5" y2="1082.8"/>
	<line fill="none" stroke="#FFFFFF" stroke-miterlimit="10" x1="-0.7" y1="1125.8" x2="105.5" y2="1125.8"/>
	<line fill="none" stroke="#FFFFFF" stroke-miterlimit="10" x1="-0.7" y1="1168.8" x2="105.5" y2="1168.8"/>
	<line fill="none" stroke="#FFFFFF" stroke-miterlimit="10" x1="-0.7" y1="1211.8" x2="105.5" y2="1211.8"/>
	<line fill="none" stroke="#FFFFFF" stroke-miterlimit="10" x1="-0.7" y1="1254.8" x2="105.5" y2="1254.8"/>
	<line fill="none" stroke="#FFFFFF" stroke-miterlimit="10" x1="-0.7" y1="1297.8" x2="105.5" y2="1297.8"/>
	<line fill="none" stroke="#FFFFFF" stroke-miterlimit="10" x1="-0.7" y1="1340.8" x2="105.5" y2="1340.8"/>
	<line fill="none" stroke="#FFFFFF" stroke-miterlimit="10" x1="-0.7" y1="1383.8" x2="105.5" y2="1383.8"/>
	<line fill="none" stroke="#FFFFFF" stroke-miterlimit="10" x1="-0.7" y1="1426.8" x2="105.5" y2="1426.8"/>
	<line fill="none" stroke="#FFFFFF" stroke-miterlimit="10" x1="-0.7" y1="1469.8" x2="105.5" y2="1469.8"/>
	<line fill="none" stroke="#FFFFFF" stroke-miterlimit="10" x1="-0.7" y1="1512.8" x2="105.5" y2="1512.8"/>
	<line fill="none" stroke="#FFFFFF" stroke-miterlimit="10" x1="-0.7" y1="1555.8" x2="105.5" y2="1555.8"/>
	<line fill="none" stroke="#FFFFFF" stroke-miterlimit="10" x1="-0.7" y1="1598.8" x2="105.5" y2="1598.8"/>
	<line fill="none" stroke="#FFFFFF" stroke-miterlimit="10" x1="-0.7" y1="1641.8" x2="105.5" y2="1641.8"/>
	<line fill="none" stroke="#FFFFFF" stroke-miterlimit="10" x1="-0.7" y1="1684.8" x2="105.5" y2="1684.8"/>
	<line fill="none" stroke="#FFFFFF" stroke-miterlimit="10" x1="-0.7" y1="1727.8" x2="105.5" y2="1727.8"/>
	<line fill="none" stroke="#FFFFFF" stroke-miterlimit="10" x1="-0.7" y1="1770.8" x2="105.5" y2="1770.8"/>
	<line fill="none" stroke="#FFFFFF" stroke-miterlimit="10" x1="-0.7" y1="1813.8" x2="105.5" y2="1813.8"/>
	<line fill="none" stroke="#FFFFFF" stroke-miterlimit="10" x1="-0.7" y1="1856.8" x2="105.5" y2="1856.8"/>
	<line fill="none" stroke="#FFFFFF" stroke-miterlimit="10" x1="-0.7" y1="1899.8" x2="105.5" y2="1899.8"/>
	<line fill="none" stroke="#FFFFFF" stroke-miterlimit="10" x1="-0.7" y1="1942.8" x2="105.5" y2="1942.8"/>
	<line fill="none" stroke="#FFFFFF" stroke-miterlimit="10" x1="-0.7" y1="1985.8" x2="105.5" y2="1985.8"/>
	<line fill="none" stroke="#FFFFFF" stroke-miterlimit="10" x1="-0.7" y1="2028.8" x2="105.5" y2="2028.8"/>
	<line fill="none" stroke="#FFFFFF" stroke-miterlimit="10" x1="-0.7" y1="2071.8" x2="105.5" y2="2071.8"/>
	<line fill="none" stroke="#FFFFFF" stroke-miterlimit="10" x1="-0.7" y1="2114.8" x2="105.5" y2="2114.8"/>
	<line fill="none" stroke="#FFFFFF" stroke-miterlimit="10" x1="-0.7" y1="2157.8" x2="105.5" y2="2157.8"/>
	<line fill="none" stroke="#FFFFFF" stroke-miterlimit="10" x1="-0.7" y1="2200.8" x2="105.5" y2="2200.8"/>
	<line fill="none" stroke="#FFFFFF" stroke-miterlimit="10" x1="-0.7" y1="2243.8" x2="105.5" y2="2243.8"/>
	<line fill="none" stroke="#FFFFFF" stroke-miterlimit="10" x1="-0.7" y1="2286.8" x2="105.5" y2="2286.8"/>
	<line fill="none" stroke="#FFFFFF" stroke-miterlimit="10" x1="-0.7" y1="2329.8" x2="105.5" y2="2329.8"/>
	<line fill="none" stroke="#FFFFFF" stroke-miterlimit="10" x1="-0.7" y1="2372.8" x2="105.5" y2="2372.8"/>
	<line fill="none" stroke="#FFFFFF" stroke-miterlimit="10" x1="-0.7" y1="2415.8" x2="105.5" y2="2415.8"/>
	<line fill="none" stroke="#FFFFFF" stroke-miterlimit="10" x1="-0.7" y1="2458.8" x2="105.5" y2="2458.8"/>
	<line fill="none" stroke="#FFFFFF" stroke-miterlimit="10" x1="-0.7" y1="2501.8" x2="105.5" y2="2501.8"/>
	<line fill="none" stroke="#FFFFFF" stroke-miterlimit="10" x1="-0.7" y1="2544.8" x2="105.5" y2="2544.8"/>
	<line fill="none" stroke="#FFFFFF" stroke-miterlimit="10" x1="-0.7" y1="2587.8" x2="105.5" y2="2587.8"/>
	<line fill="none" stroke="#FFFFFF" stroke-miterlimit="10" x1="-0.7" y1="2630.8" x2="105.5" y2="2630.8"/>
	<line fill="none" stroke="#FFFFFF" stroke-miterlimit="10" x1="-0.7" y1="437.8" x2="105.5" y2="437.8"/>
</g>
<g id="Layer_1">
	<line fill="none" stroke="#FFFFFF" stroke-miterlimit="10" x1="-0.7" y1="7.8" x2="105.5" y2="7.8"/>
	<line fill="none" stroke="#F7941E" stroke-width="3" stroke-miterlimit="10" x1="6.7" y1="14" x2="6.7" y2="16.8"/>
	<line fill="none" stroke="#F7941E" stroke-width="3" stroke-miterlimit="10" x1="6.7" y1="33.2" x2="6.7" y2="36"/>
	<line fill="none" stroke="#F7941E" stroke-width="3" stroke-miterlimit="10" x1="83.5" y1="36" x2="83.5" y2="38.8"/>
	<line fill="none" stroke="#F7941E" stroke-width="3" stroke-miterlimit="10" x1="32.3" y1="38.8" x2="32.3" y2="44.2"/>
	<line fill="none" stroke="#F7941E" stroke-width="3" stroke-miterlimit="10" x1="83.5" y1="44.2" x2="83.5" y2="47.4"/>
	<line fill="none" stroke="#F7941E" stroke-width="3" stroke-miterlimit="10" x1="32.3" y1="47.4" x2="32.3" y2="213.2"/>
	<line fill="none" stroke="#F7941E" stroke-width="3" stroke-miterlimit="10" x1="82.8" y1="213.2" x2="82.8" y2="258.7"/>
	<line fill="none" stroke="#F7941E" stroke-width="3" stroke-miterlimit="10" x1="57.9" y1="258.7" x2="57.9" y2="316.2"/>
	<line fill="none" stroke="#F7941E" stroke-width="3" stroke-miterlimit="10" x1="6.7" y1="315.9" x2="6.7" y2="371.5"/>
	<line fill="none" stroke="#F7941E" stroke-width="3" stroke-miterlimit="10" x1="32.3" y1="380.5" x2="32.3" y2="371.5"/>
	<line fill="none" stroke="#F7941E" stroke-width="3" stroke-miterlimit="10" x1="57.9" y1="381.7" x2="57.9" y2="380.5"/>
	<line fill="none" stroke="#F7941E" stroke-width="3" stroke-miterlimit="10" x1="83.5" y1="385.4" x2="83.5" y2="381.7"/>
	<line fill="none" stroke="#F7941E" stroke-width="3" stroke-miterlimit="10" x1="32.3" y1="461" x2="32.3" y2="385.8"/>
	<line fill="none" stroke="#F7941E" stroke-width="3" stroke-miterlimit="10" x1="32.3" y1="16.2" x2="32.3" y2="28.3"/>
	<line fill="none" stroke="#F7941E" stroke-width="3" stroke-miterlimit="10" x1="57.9" y1="28.3" x2="57.9" y2="33.2"/>
	<line fill="none" stroke="#00AEEF" stroke-width="3" stroke-miterlimit="10" x1="38.3" y1="154.2" x2="38.3" y2="179.8"/>
	<line fill="none" stroke="#662D91" stroke-width="3" stroke-miterlimit="10" x1="44.8" y1="179.8" x2="44.8" y2="192"/>
	<line fill="none" stroke="#00AEEF" stroke-width="3" stroke-miterlimit="10" x1="89.3" y1="221" x2="89.3" y2="238.7"/>
	<line fill="none" stroke="#00AEEF" stroke-width="3" stroke-miterlimit="10" x1="64.3" y1="265.4" x2="64.3" y2="311"/>
	<line fill="none" stroke="#00AEEF" stroke-width="3" stroke-miterlimit="10" x1="13.1" y1="315.8" x2="13.1" y2="365"/>
	<line fill="none" stroke="#00AEEF" stroke-width="3" stroke-miterlimit="10" x1="38.5" y1="391" x2="38.5" y2="448.7"/>
	<line fill="none" stroke="#D7DF23" stroke-width="3" stroke-miterlimit="10" x1="109" y1="16" x2="109" y2="66.1"/>
	<line fill="none" stroke="#006838" stroke-width="3" stroke-miterlimit="10" x1="121" y1="124.4" x2="121" y2="131.3"/>
	<line fill="none" stroke="#006838" stroke-width="3" stroke-miterlimit="10" x1="121" y1="133.7" x2="121" y2="141.7"/>
	<line fill="none" stroke="#006838" stroke-width="3" stroke-miterlimit="10" x1="121" y1="143.8" x2="121" y2="146.7"/>
	<line fill="none" stroke="#006838" stroke-width="3" stroke-miterlimit="10" x1="121" y1="148.6" x2="121" y2="150.9"/>
	<line fill="none" stroke="#006838" stroke-width="3" stroke-miterlimit="10" x1="121" y1="176.3" x2="121" y2="179.2"/>
	<line fill="none" stroke="#006838" stroke-width="3" stroke-miterlimit="10" x1="121" y1="239.8" x2="121" y2="243.5"/>
	<line fill="none" stroke="#006838" stroke-width="3" stroke-miterlimit="10" x1="121" y1="285.4" x2="121" y2="289.1"/>
	<line fill="none" stroke="#006838" stroke-width="3" stroke-miterlimit="10" x1="121" y1="340.9" x2="121" y2="344.6"/>
	<line fill="none" stroke="#D7DF23" stroke-width="3" stroke-miterlimit="10" x1="108.3" y1="84.1" x2="108.3" y2="160.8"/>
	<line fill="none" stroke="#D1D3D4" stroke-width="3" stroke-miterlimit="10" x1="114.7" y1="57.9" x2="114.7" y2="134.7"/>
	<line fill="none" stroke="#D1D3D4" stroke-width="3" stroke-miterlimit="10" x1="114.7" y1="222.7" x2="114.7" y2="299.5"/>
	<line fill="none" stroke="#D7DF23" stroke-width="3" stroke-miterlimit="10" x1="108.3" y1="198.5" x2="108.3" y2="364.9"/>
	<line fill="none" stroke="#D7DF23" stroke-width="3" stroke-miterlimit="10" x1="108.3" y1="370.3" x2="108.3" y2="437.8"/>
	<line fill="none" stroke="#D7DF23" stroke-width="3" stroke-miterlimit="10" x1="108.3" y1="530.9" x2="108.3" y2="674.2"/>
	<line fill="none" stroke="#D7DF23" stroke-width="3" stroke-miterlimit="10" x1="108.3" y1="686.3" x2="108.3" y2="741.8"/>
	<line fill="none" stroke="#D7DF23" stroke-width="3" stroke-miterlimit="10" x1="108.3" y1="758.4" x2="108.3" y2="826.7"/>
	<line fill="none" stroke="#D7DF23" stroke-width="3" stroke-miterlimit="10" x1="108.3" y1="875.4" x2="108.3" y2="959.8"/>
	<line fill="none" stroke="#D7DF23" stroke-width="3" stroke-miterlimit="10" x1="108.3" y1="1007.9" x2="108.3" y2="1089.9"/>
	<line fill="none" stroke="#D1D3D4" stroke-width="3" stroke-miterlimit="10" x1="114.7" y1="943.4" x2="114.7" y2="959.8"/>
	<line fill="none" stroke="#D1D3D4" stroke-width="3" stroke-miterlimit="10" x1="114.7" y1="448.5" x2="114.7" y2="460.9"/>
	<path d="M6.7,461"/>
	<line fill="none" stroke="#F7941E" stroke-width="3" stroke-miterlimit="10" x1="6.7" y1="505.6" x2="6.7" y2="464.1"/>
	<line fill="none" stroke="#F7941E" stroke-width="3" stroke-miterlimit="10" x1="6.7" y1="561.8" x2="6.7" y2="537.7"/>
	<line fill="none" stroke="#F7941E" stroke-width="3" stroke-miterlimit="10" x1="32.1" y1="586.6" x2="32.1" y2="562.4"/>
	<line fill="none" stroke="#F7941E" stroke-width="3" stroke-miterlimit="10" x1="32.1" y1="599.1" x2="32.1" y2="590.6"/>
	<line fill="none" stroke="#F7941E" stroke-width="3" stroke-miterlimit="10" x1="57.5" y1="605.1" x2="57.5" y2="599.4"/>
	<line fill="none" stroke="#F7941E" stroke-width="3" stroke-miterlimit="10" x1="32.1" y1="612.6" x2="32.1" y2="605.1"/>
	<line fill="none" stroke="#F7941E" stroke-width="3" stroke-miterlimit="10" x1="82.9" y1="676.6" x2="82.9" y2="613.5"/>
	<line fill="none" stroke="#00AEEF" stroke-width="3" stroke-miterlimit="10" x1="63.9" y1="731.6" x2="63.9" y2="678.6"/>
	<line fill="none" stroke="#F7941E" stroke-width="3" stroke-miterlimit="10" x1="57.5" y1="744.3" x2="57.5" y2="679.8"/>
	<line fill="none" stroke="#F7941E" stroke-width="3" stroke-miterlimit="10" x1="82.9" y1="822.3" x2="82.9" y2="746.4"/>
	<line fill="none" stroke="#F7941E" stroke-width="3" stroke-miterlimit="10" x1="32.1" y1="959.8" x2="32.1" y2="822.5"/>
	<line fill="none" stroke="#00AEEF" stroke-width="3" stroke-miterlimit="10" x1="89.3" y1="817.6" x2="89.3" y2="751.5"/>
	<line fill="none" stroke="#00AEEF" stroke-width="3" stroke-miterlimit="10" x1="38.5" y1="943.4" x2="38.5" y2="828.9"/>
	<line fill="none" stroke="#00AEEF" stroke-width="3" stroke-miterlimit="10" x1="63.9" y1="1086.3" x2="63.9" y2="961"/>
	<line fill="none" stroke="#F7941E" stroke-width="3" stroke-miterlimit="10" x1="57.5" y1="1089.9" x2="57.5" y2="964"/>
	<line fill="none" stroke="#662D91" stroke-width="3" stroke-miterlimit="10" x1="44.8" y1="843.5" x2="44.8" y2="841.9"/>
	<line fill="none" stroke="#662D91" stroke-width="3" stroke-miterlimit="10" x1="44.8" y1="855.1" x2="44.8" y2="853.5"/>
	<line fill="none" stroke="#662D91" stroke-width="3" stroke-miterlimit="10" x1="44.8" y1="874.9" x2="44.8" y2="867"/>
	<line fill="none" stroke="#662D91" stroke-width="3" stroke-miterlimit="10" x1="44.8" y1="898.4" x2="44.8" y2="881.2"/>
	<line fill="none" stroke="#662D91" stroke-width="3" stroke-miterlimit="10" x1="44.8" y1="913.7" x2="44.8" y2="910.7"/>
	<line fill="none" stroke="#662D91" stroke-width="3" stroke-miterlimit="10" x1="44.8" y1="925.1" x2="44.8" y2="918.1"/>
	<line fill="none" stroke="#662D91" stroke-width="3" stroke-miterlimit="10" x1="70.2" y1="975.2" x2="70.2" y2="971.4"/>
	<line fill="none" stroke="#662D91" stroke-width="3" stroke-miterlimit="10" x1="70.2" y1="986.2" x2="70.2" y2="982.4"/>
	<line fill="none" stroke="#662D91" stroke-width="3" stroke-miterlimit="10" x1="70.2" y1="1011.1" x2="70.2" y2="1002.9"/>
	<line fill="none" stroke="#662D91" stroke-width="3" stroke-miterlimit="10" x1="70.2" y1="1025.4" x2="70.2" y2="1018.3"/>
	<line fill="none" stroke="#662D91" stroke-width="3" stroke-miterlimit="10" x1="44.8" y1="936.2" x2="44.8" y2="932.7"/>
	<line fill="none" stroke="#662D91" stroke-width="3" stroke-miterlimit="10" x1="95.6" y1="758.6" x2="95.6" y2="746.4"/>
	<line fill="none" stroke="#F7941E" stroke-width="3" stroke-miterlimit="10" x1="57.5" y1="590.6" x2="57.5" y2="586.4"/>
	<line fill="none" stroke="#F7941E" stroke-width="3" stroke-miterlimit="10" x1="57.5" y1="547.7" x2="57.5" y2="506.2"/>
	<line fill="none" stroke="#00AEEF" stroke-width="3" stroke-miterlimit="10" x1="63.9" y1="530.9" x2="63.9" y2="502.2"/>
	<line fill="none" stroke="#662D91" stroke-width="3" stroke-miterlimit="10" x1="70.2" y1="530.9" x2="70.2" y2="523.8"/>
	<line fill="none" stroke="#00AEEF" stroke-width="3" stroke-miterlimit="10" x1="13.1" y1="500.6" x2="13.1" y2="461"/>
	<line fill="none" stroke="#00AEEF" stroke-width="3" stroke-miterlimit="10" x1="13.1" y1="570.1" x2="13.1" y2="536.7"/>
	<line fill="none" stroke="#00AEEF" stroke-width="3" stroke-miterlimit="10" x1="63.9" y1="609.7" x2="63.9" y2="572.8"/>
	<line fill="none" stroke="#00AEEF" stroke-width="3" stroke-miterlimit="10" x1="89.3" y1="664.3" x2="89.3" y2="615.7"/>
</g>
<g id="Layer_3" display="none">
</g>
<g id="Layer_2" display="none">
	<g display="inline">
		<rect x="0.3" y="93.8" fill="none" stroke="#FFFFFF" stroke-width="0.5" stroke-miterlimit="10" width="102" height="43"/>
		<line fill="none" stroke="#FFFFFF" stroke-width="0.5" stroke-miterlimit="10" x1="0.3" y1="129.7" x2="102.3" y2="129.7"/>
		<line fill="none" stroke="#FFFFFF" stroke-width="0.5" stroke-miterlimit="10" x1="0.3" y1="122.5" x2="102.3" y2="122.5"/>
		<line fill="none" stroke="#FFFFFF" stroke-width="0.5" stroke-miterlimit="10" x1="0.3" y1="115.3" x2="102.3" y2="115.3"/>
		<line fill="none" stroke="#FFFFFF" stroke-width="0.5" stroke-miterlimit="10" x1="0.3" y1="108.2" x2="102.3" y2="108.2"/>
		<line fill="none" stroke="#FFFFFF" stroke-width="0.5" stroke-miterlimit="10" x1="0.3" y1="101" x2="102.3" y2="101"/>
	</g>
	<g display="inline">
		<rect x="0.3" y="136.6" fill="none" stroke="#FFFFFF" stroke-width="0.5" stroke-miterlimit="10" width="102" height="43"/>
		<line fill="none" stroke="#FFFFFF" stroke-width="0.5" stroke-miterlimit="10" x1="0.3" y1="172.4" x2="102.3" y2="172.4"/>
		<line fill="none" stroke="#FFFFFF" stroke-width="0.5" stroke-miterlimit="10" x1="0.3" y1="165.3" x2="102.3" y2="165.3"/>
		<line fill="none" stroke="#FFFFFF" stroke-width="0.5" stroke-miterlimit="10" x1="0.3" y1="158.1" x2="102.3" y2="158.1"/>
		<line fill="none" stroke="#FFFFFF" stroke-width="0.5" stroke-miterlimit="10" x1="0.3" y1="150.9" x2="102.3" y2="150.9"/>
		<line fill="none" stroke="#FFFFFF" stroke-width="0.5" stroke-miterlimit="10" x1="0.3" y1="143.8" x2="102.3" y2="143.8"/>
	</g>
	<g display="inline">
		<rect x="0.3" y="179.8" fill="none" stroke="#FFFFFF" stroke-width="0.5" stroke-miterlimit="10" width="102" height="43"/>
		<line fill="none" stroke="#FFFFFF" stroke-width="0.5" stroke-miterlimit="10" x1="0.3" y1="215.7" x2="102.3" y2="215.7"/>
		<line fill="none" stroke="#FFFFFF" stroke-width="0.5" stroke-miterlimit="10" x1="0.3" y1="208.5" x2="102.3" y2="208.5"/>
		<line fill="none" stroke="#FFFFFF" stroke-width="0.5" stroke-miterlimit="10" x1="0.3" y1="201.3" x2="102.3" y2="201.3"/>
		<line fill="none" stroke="#FFFFFF" stroke-width="0.5" stroke-miterlimit="10" x1="0.3" y1="194.2" x2="102.3" y2="194.2"/>
		<line fill="none" stroke="#FFFFFF" stroke-width="0.5" stroke-miterlimit="10" x1="0.3" y1="187" x2="102.3" y2="187"/>
	</g>
	<g display="inline">
		<rect x="0.3" y="222.8" fill="none" stroke="#FFFFFF" stroke-width="0.5" stroke-miterlimit="10" width="102" height="43"/>
		<line fill="none" stroke="#FFFFFF" stroke-width="0.5" stroke-miterlimit="10" x1="0.3" y1="258.7" x2="102.3" y2="258.7"/>
		<line fill="none" stroke="#FFFFFF" stroke-width="0.5" stroke-miterlimit="10" x1="0.3" y1="251.5" x2="102.3" y2="251.5"/>
		<line fill="none" stroke="#FFFFFF" stroke-width="0.5" stroke-miterlimit="10" x1="0.3" y1="244.3" x2="102.3" y2="244.3"/>
		<line fill="none" stroke="#FFFFFF" stroke-width="0.5" stroke-miterlimit="10" x1="0.3" y1="237.2" x2="102.3" y2="237.2"/>
		<line fill="none" stroke="#FFFFFF" stroke-width="0.5" stroke-miterlimit="10" x1="0.3" y1="230" x2="102.3" y2="230"/>
	</g>
	<g display="inline">
		<rect x="0.3" y="265.8" fill="none" stroke="#FFFFFF" stroke-width="0.5" stroke-miterlimit="10" width="102" height="43"/>
		<line fill="none" stroke="#FFFFFF" stroke-width="0.5" stroke-miterlimit="10" x1="0.3" y1="301.7" x2="102.3" y2="301.7"/>
		<line fill="none" stroke="#FFFFFF" stroke-width="0.5" stroke-miterlimit="10" x1="0.3" y1="294.5" x2="102.3" y2="294.5"/>
		<line fill="none" stroke="#FFFFFF" stroke-width="0.5" stroke-miterlimit="10" x1="0.3" y1="287.3" x2="102.3" y2="287.3"/>
		<line fill="none" stroke="#FFFFFF" stroke-width="0.5" stroke-miterlimit="10" x1="0.3" y1="280.2" x2="102.3" y2="280.2"/>
		<line fill="none" stroke="#FFFFFF" stroke-width="0.5" stroke-miterlimit="10" x1="0.3" y1="273" x2="102.3" y2="273"/>
	</g>
	<g display="inline">
		<rect x="0.3" y="308.8" fill="none" stroke="#FFFFFF" stroke-width="0.5" stroke-miterlimit="10" width="102" height="43"/>
		<line fill="none" stroke="#FFFFFF" stroke-width="0.5" stroke-miterlimit="10" x1="0.3" y1="344.7" x2="102.3" y2="344.7"/>
		<line fill="none" stroke="#FFFFFF" stroke-width="0.5" stroke-miterlimit="10" x1="0.3" y1="337.5" x2="102.3" y2="337.5"/>
		<line fill="none" stroke="#FFFFFF" stroke-width="0.5" stroke-miterlimit="10" x1="0.3" y1="330.3" x2="102.3" y2="330.3"/>
		<line fill="none" stroke="#FFFFFF" stroke-width="0.5" stroke-miterlimit="10" x1="0.3" y1="323.2" x2="102.3" y2="323.2"/>
		<line fill="none" stroke="#FFFFFF" stroke-width="0.5" stroke-miterlimit="10" x1="0.3" y1="316" x2="102.3" y2="316"/>
	</g>
	<g display="inline">
		<rect x="0.3" y="351.8" fill="none" stroke="#FFFFFF" stroke-width="0.5" stroke-miterlimit="10" width="102" height="43"/>
		<line fill="none" stroke="#FFFFFF" stroke-width="0.5" stroke-miterlimit="10" x1="0.3" y1="387.7" x2="102.3" y2="387.7"/>
		<line fill="none" stroke="#FFFFFF" stroke-width="0.5" stroke-miterlimit="10" x1="0.3" y1="380.5" x2="102.3" y2="380.5"/>
		<line fill="none" stroke="#FFFFFF" stroke-width="0.5" stroke-miterlimit="10" x1="0.3" y1="373.3" x2="102.3" y2="373.3"/>
		<line fill="none" stroke="#FFFFFF" stroke-width="0.5" stroke-miterlimit="10" x1="0.3" y1="366.2" x2="102.3" y2="366.2"/>
		<line fill="none" stroke="#FFFFFF" stroke-width="0.5" stroke-miterlimit="10" x1="0.3" y1="359" x2="102.3" y2="359"/>
	</g>
	<g display="inline">
		<rect x="0.3" y="394.8" fill="none" stroke="#FFFFFF" stroke-width="0.5" stroke-miterlimit="10" width="102" height="43"/>
		<line fill="none" stroke="#FFFFFF" stroke-width="0.5" stroke-miterlimit="10" x1="0.3" y1="430.7" x2="102.3" y2="430.7"/>
		<line fill="none" stroke="#FFFFFF" stroke-width="0.5" stroke-miterlimit="10" x1="0.3" y1="423.5" x2="102.3" y2="423.5"/>
		<line fill="none" stroke="#FFFFFF" stroke-width="0.5" stroke-miterlimit="10" x1="0.3" y1="416.3" x2="102.3" y2="416.3"/>
		<line fill="none" stroke="#FFFFFF" stroke-width="0.5" stroke-miterlimit="10" x1="0.3" y1="409.2" x2="102.3" y2="409.2"/>
		<line fill="none" stroke="#FFFFFF" stroke-width="0.5" stroke-miterlimit="10" x1="0.3" y1="402" x2="102.3" y2="402"/>
	</g>
	<g display="inline">
		<rect x="0.3" y="50.8" fill="none" stroke="#FFFFFF" stroke-width="0.5" stroke-miterlimit="10" width="102" height="43"/>
		<line fill="none" stroke="#FFFFFF" stroke-width="0.5" stroke-miterlimit="10" x1="0.3" y1="86.7" x2="102.3" y2="86.7"/>
		<line fill="none" stroke="#FFFFFF" stroke-width="0.5" stroke-miterlimit="10" x1="0.3" y1="79.5" x2="102.3" y2="79.5"/>
		<line fill="none" stroke="#FFFFFF" stroke-width="0.5" stroke-miterlimit="10" x1="0.3" y1="72.3" x2="102.3" y2="72.3"/>
		<line fill="none" stroke="#FFFFFF" stroke-width="0.5" stroke-miterlimit="10" x1="0.3" y1="65.2" x2="102.3" y2="65.2"/>
		<line fill="none" stroke="#FFFFFF" stroke-width="0.5" stroke-miterlimit="10" x1="0.3" y1="58" x2="102.3" y2="58"/>
	</g>
	<g display="inline">
		<rect x="0.3" y="7.7" fill="none" stroke="#FFFFFF" stroke-width="0.5" stroke-miterlimit="10" width="102" height="43"/>
		<line fill="none" stroke="#FFFFFF" stroke-width="0.5" stroke-miterlimit="10" x1="0.3" y1="43.6" x2="102.3" y2="43.6"/>
		<line fill="none" stroke="#FFFFFF" stroke-width="0.5" stroke-miterlimit="10" x1="0.3" y1="36.4" x2="102.3" y2="36.4"/>
		<line fill="none" stroke="#FFFFFF" stroke-width="0.5" stroke-miterlimit="10" x1="0.3" y1="29.2" x2="102.3" y2="29.2"/>
		<line fill="none" stroke="#FFFFFF" stroke-width="0.5" stroke-miterlimit="10" x1="0.3" y1="22.1" x2="102.3" y2="22.1"/>
		<line fill="none" stroke="#FFFFFF" stroke-width="0.5" stroke-miterlimit="10" x1="0.3" y1="14.9" x2="102.3" y2="14.9"/>
	</g>
	<g display="inline">
		<line fill="none" stroke="#FFFFFF" stroke-miterlimit="10" x1="6.7" y1="6.7" x2="6.7" y2="437.8"/>
		<line fill="none" stroke="#FFFFFF" stroke-miterlimit="10" x1="13.1" y1="6.7" x2="13.1" y2="437.8"/>
		<line fill="none" stroke="#FFFFFF" stroke-miterlimit="10" x1="19.5" y1="6.7" x2="19.5" y2="437.8"/>
		<line fill="none" stroke="#FFFFFF" stroke-miterlimit="10" x1="32.3" y1="6.7" x2="32.3" y2="437.8"/>
		<line fill="none" stroke="#FFFFFF" stroke-miterlimit="10" x1="38.7" y1="6.7" x2="38.7" y2="437.8"/>
		<line fill="none" stroke="#FFFFFF" stroke-miterlimit="10" x1="45.1" y1="6.7" x2="45.1" y2="437.8"/>
		<line fill="none" stroke="#FFFFFF" stroke-miterlimit="10" x1="57.9" y1="6.7" x2="57.9" y2="437.8"/>
		<line fill="none" stroke="#FFFFFF" stroke-miterlimit="10" x1="64.3" y1="6.7" x2="64.3" y2="437.8"/>
		<line fill="none" stroke="#FFFFFF" stroke-miterlimit="10" x1="70.7" y1="6.7" x2="70.7" y2="437.8"/>
		<line fill="none" stroke="#FFFFFF" stroke-miterlimit="10" x1="83.5" y1="6.7" x2="83.5" y2="437.8"/>
		<line fill="none" stroke="#FFFFFF" stroke-miterlimit="10" x1="89.9" y1="6.7" x2="89.9" y2="437.8"/>
		<line fill="none" stroke="#FFFFFF" stroke-miterlimit="10" x1="96.3" y1="6.7" x2="96.3" y2="437.8"/>
	</g>
</g>
</svg>
