<?xml version="1.0" encoding="utf-8"?>
<!-- Generator: Adobe Illustrator 18.0.0, SVG Export Plug-In . SVG Version: 6.00 Build 0)  -->
<!DOCTYPE svg PUBLIC "-//W3C//DTD SVG 1.1//EN" "http://www.w3.org/Graphics/SVG/1.1/DTD/svg11.dtd">
<svg version="1.1" xmlns="http://www.w3.org/2000/svg" xmlns:xlink="http://www.w3.org/1999/xlink" x="0px" y="0px"
	 viewBox="0 0 133.4 32.7" enable-background="new 0 0 133.4 32.7" xml:space="preserve">
<g id="Layer_4">
</g>
<g id="Layer_1">
	<g>
		<rect x="5.6" y="15.2" fill="none" stroke="#000000" stroke-miterlimit="10" width="14.3" height="7.8"/>
		<line fill="none" stroke="#000000" stroke-miterlimit="10" x1="12.7" y1="9.8" x2="12.7" y2="15.2"/>
		<circle fill="#FFFFFF" stroke="#000000" stroke-miterlimit="10" cx="12.7" cy="9.8" r="1.4"/>
		<circle cx="9.9" cy="19.1" r="1.4"/>
		<circle cx="15.5" cy="19.1" r="1.4"/>
	</g>
	<g>
		<circle cx="35.2" cy="16.5" r="0.6"/>
		<circle cx="39.2" cy="16.5" r="0.6"/>
		<path fill="none" stroke="#000000" stroke-miterlimit="10" d="M37.2,13.3c-3.1,0-4.2,1.2-4.8,2.4l1.7,9.9h3.1"/>
		<path fill="none" stroke="#000000" stroke-miterlimit="10" d="M37.2,13.3c3.1,0,4.2,1.2,4.8,2.4l-1.7,9.9h-3.1"/>
		<path fill="none" stroke="#000000" stroke-miterlimit="10" d="M37.2,20.4h2.4l-2.4,2l3.1,3.2c5.1,0,7.4-11.6,6.2-14.9
			s-7.1-4.2-9.3-2.1C35,6.5,29,7.4,27.8,10.7C26.7,14,29,25.6,34.1,25.6l3.1-3.2l-2.4-2H37.2"/>
	</g>
	<g>
		<circle cx="59.1" cy="14.1" r="0.7"/>
		<circle cx="68.4" cy="14.1" r="0.7"/>
		<polygon fill="none" stroke="#000000" stroke-miterlimit="10" points="61.9,21 62.5,26.9 63.7,26.9 63.7,21 		"/>
		<polygon fill="none" stroke="#000000" stroke-miterlimit="10" points="65.6,21 64.9,26.9 63.7,26.9 63.7,21 		"/>
		<path fill="none" stroke="#000000" stroke-miterlimit="10" d="M65.1,23.9c4.3,0,6.6-4.4,6.6-8.8s-2.3-7.5-7.9-7.5
			s-7.9,3.1-7.9,7.5s2.3,8.8,6.6,8.8"/>
	</g>
	<g>
		<circle cx="87.8" cy="14" r="0.6"/>
		<path fill="none" stroke="#000000" stroke-miterlimit="10" d="M86.9,24c0.7-0.5,1.9,0.7,1.2,1.5"/>
		<polygon fill="none" stroke="#000000" stroke-miterlimit="10" points="95.1,8.9 96.8,6.2 92.8,6.8 92.5,8.2 91.8,8.9 91.2,8.9 
			91.2,6.9 90,6.9 90,8.9 89.2,8.9 88.4,8.9 88.4,6.9 87.2,6.9 87.2,8.9 86.7,8.9 86,8.2 85.7,6.8 81.7,6.2 83.4,8.9 84.8,8.9 
			85.5,9.8 84.4,16 86.9,21.6 85.3,23 86.1,28.3 89.2,28.3 92.3,28.3 93.2,23 91.6,21.6 94.1,16 92.9,9.8 93.6,8.9 		"/>
		<circle cx="90.6" cy="14" r="0.6"/>
		<path fill="none" stroke="#000000" stroke-miterlimit="10" d="M91.6,24c-0.7-0.5-1.9,0.7-1.2,1.5"/>
		<path fill="#FFFFFF" stroke="#000000" stroke-miterlimit="10" d="M86.5,15.5c-0.2-1.3-1.9-1.6-2.7-1.5C83.6,15,83.7,16.3,86,17"/>
		<path fill="#FFFFFF" stroke="#000000" stroke-miterlimit="10" d="M86.3,16.8c-0.6-1.1-2.3-0.9-3-0.5c0.1,1,0.6,2.2,3,2.1"/>
		<path fill="#FFFFFF" stroke="#000000" stroke-miterlimit="10" d="M90.6,19.7c0.5,0.9,1.9,1.6,2.7,1.5c0.2-0.9-0.1-1.9-1.1-2.5"/>
	</g>
</g>
<g id="Layer_3" display="none">
</g>
<g id="Layer_2" display="none">
</g>
</svg>
