<?xml version="1.0" encoding="utf-8"?>
<!-- Generator: Adobe Illustrator 18.0.0, SVG Export Plug-In . SVG Version: 6.00 Build 0)  -->
<!DOCTYPE svg PUBLIC "-//W3C//DTD SVG 1.1//EN" "http://www.w3.org/Graphics/SVG/1.1/DTD/svg11.dtd">
<svg version="1.1" xmlns="http://www.w3.org/2000/svg" xmlns:xlink="http://www.w3.org/1999/xlink" x="0px" y="0px"
	 viewBox="0 0 170.6 58.5" enable-background="new 0 0 170.6 58.5" xml:space="preserve">
<g id="Layer_4">
</g>
<g id="Layer_1">
	<g>
		<rect x="36" y="27.1" fill="none" stroke="#000000" stroke-miterlimit="10" width="14.3" height="7.8"/>
		<line fill="none" stroke="#000000" stroke-miterlimit="10" x1="43.1" y1="21.7" x2="43.1" y2="27.1"/>
		<circle fill="#FFFFFF" stroke="#000000" stroke-miterlimit="10" cx="43.1" cy="21.7" r="1.4"/>
		<circle cx="40.3" cy="31" r="1.4"/>
		<circle cx="45.9" cy="31" r="1.4"/>
	</g>
	<g>
		<circle cx="65.5" cy="28.4" r="0.6"/>
		<circle cx="69.5" cy="28.4" r="0.6"/>
		<path fill="none" stroke="#000000" stroke-miterlimit="10" d="M67.5,25.2c-3.1,0-4.2,1.2-4.8,2.4l1.7,9.9h3.1"/>
		<path fill="none" stroke="#000000" stroke-miterlimit="10" d="M67.5,25.2c3.1,0,4.2,1.2,4.8,2.4l-1.7,9.9h-3.1"/>
		<path fill="none" stroke="#000000" stroke-miterlimit="10" d="M67.5,32.3h2.4l-2.4,2l3.1,3.2c5.1,0,7.4-11.6,6.2-14.9
			c-1.2-3.3-7.1-4.2-9.3-2.1c-2.2-2.1-8.2-1.2-9.3,2.1s1.1,14.9,6.2,14.9l3.1-3.2l-2.4-2H67.5"/>
	</g>
	<g>
		<circle cx="89.4" cy="26" r="0.7"/>
		<circle cx="98.7" cy="26" r="0.7"/>
		<polygon fill="none" stroke="#000000" stroke-miterlimit="10" points="92.2,32.8 92.9,38.8 94.1,38.8 94.1,32.8 		"/>
		<polygon fill="none" stroke="#000000" stroke-miterlimit="10" points="96,32.8 95.3,38.8 94.1,38.8 94.1,32.8 		"/>
		<path fill="none" stroke="#000000" stroke-miterlimit="10" d="M95.4,35.8c4.3,0,6.6-4.4,6.6-8.8s-2.3-7.5-7.9-7.5
			c-5.6,0-7.9,3.1-7.9,7.5s2.3,8.8,6.6,8.8"/>
	</g>
	<g>
		<circle cx="118.2" cy="25.9" r="0.6"/>
		<path fill="none" stroke="#000000" stroke-miterlimit="10" d="M117.2,35.9c0.7-0.5,1.9,0.7,1.2,1.5"/>
		<polygon fill="none" stroke="#000000" stroke-miterlimit="10" points="125.5,20.8 127.2,18.1 123.1,18.7 122.9,20.1 122.2,20.8 
			121.6,20.8 121.6,18.8 120.4,18.8 120.4,20.8 119.6,20.8 118.8,20.8 118.8,18.8 117.6,18.8 117.6,20.8 117,20.8 116.3,20.1 
			116.1,18.7 112,18.1 113.7,20.8 115.2,20.8 115.9,21.7 114.8,27.9 117.2,33.5 115.6,34.9 116.5,40.2 119.6,40.2 122.7,40.2 
			123.6,34.9 122,33.5 124.4,27.9 123.3,21.7 124,20.8 		"/>
		<circle cx="121" cy="25.9" r="0.6"/>
		<path fill="none" stroke="#000000" stroke-miterlimit="10" d="M122,35.9c-0.7-0.5-1.9,0.7-1.2,1.5"/>
		<path fill="#FFFFFF" stroke="#000000" stroke-miterlimit="10" d="M116.8,27.4c-0.2-1.3-1.9-1.6-2.7-1.5c-0.2,0.9-0.1,2.3,2.2,2.9"
			/>
		<path fill="#FFFFFF" stroke="#000000" stroke-miterlimit="10" d="M116.6,28.7c-0.6-1.1-2.3-0.9-3-0.5c0.1,1,0.6,2.2,3,2.1"/>
		<path fill="#FFFFFF" stroke="#000000" stroke-miterlimit="10" d="M121,31.6c0.5,0.9,1.9,1.6,2.7,1.5c0.2-0.9-0.1-1.9-1.1-2.5"/>
	</g>
</g>
<g id="Layer_3" display="none">
</g>
<g id="Layer_2" display="none">
</g>
</svg>
