<?xml version="1.0" encoding="utf-8"?>
<!-- Generator: Adobe Illustrator 18.0.0, SVG Export Plug-In . SVG Version: 6.00 Build 0)  -->
<!DOCTYPE svg PUBLIC "-//W3C//DTD SVG 1.1//EN" "http://www.w3.org/Graphics/SVG/1.1/DTD/svg11.dtd">
<svg version="1.1" id="Layer_1" xmlns="http://www.w3.org/2000/svg" xmlns:xlink="http://www.w3.org/1999/xlink" x="0px" y="0px"
	 viewBox="0 0 86.4 86.4" enable-background="new 0 0 86.4 86.4" xml:space="preserve">
<g>
	<circle cx="40.4" cy="37.9" r="1.1"/>
	<path fill="none" stroke="#000000" stroke-width="2.0055" stroke-miterlimit="10" d="M38.4,58c1.4-1,3.9,1.3,2.5,3"/>
	<polygon fill="none" stroke="#000000" stroke-width="2.0055" stroke-miterlimit="10" points="54.9,27.7 58.4,22.2 50.3,23.5 
		49.8,26.3 48.3,27.7 47.2,27.7 47.2,23.7 44.8,23.7 44.8,27.7 43.2,27.7 41.6,27.7 41.6,23.7 39.2,23.7 39.2,27.7 38.1,27.7 
		36.6,26.3 36.1,23.5 28,22.2 31.4,27.7 34.4,27.7 35.8,29.5 33.5,41.9 38.4,53.2 35.2,55.9 37,66.5 43.2,66.5 49.4,66.5 51.2,55.9 
		48,53.2 52.8,41.9 50.6,29.5 52,27.7 	"/>
	<circle cx="46" cy="37.9" r="1.1"/>
	<path fill="none" stroke="#000000" stroke-width="2.0055" stroke-miterlimit="10" d="M48,58c-1.4-1-3.9,1.3-2.5,3"/>
	<path fill="#FFFFFF" stroke="#000000" stroke-width="2.0055" stroke-miterlimit="10" d="M37.7,41c-0.3-2.5-3.8-3.2-5.4-3
		c-0.5,1.9-0.3,4.6,4.3,5.9"/>
	<path fill="#FFFFFF" stroke="#000000" stroke-width="2.0055" stroke-miterlimit="10" d="M37.2,43.5c-1.2-2.3-4.6-1.7-6.1-1.1
		c0.2,1.9,1.3,4.4,6,4.1"/>
	<path fill="#FFFFFF" stroke="#000000" stroke-width="2.0055" stroke-miterlimit="10" d="M46,49.4c0.9,1.9,3.7,3.2,5.3,3.1
		c0.5-1.9-0.2-3.9-2.2-5.1"/>
</g>
</svg>
